<?xml version="1.0" encoding="UTF-8" standalone="no"?>
<!-- Created with Inkscape (http://www.inkscape.org/) -->

<svg
   xmlns:dc="http://purl.org/dc/elements/1.1/"
   xmlns:cc="http://creativecommons.org/ns#"
   xmlns:rdf="http://www.w3.org/1999/02/22-rdf-syntax-ns#"
   xmlns:svg="http://www.w3.org/2000/svg"
   xmlns="http://www.w3.org/2000/svg"
   xmlns:sodipodi="http://sodipodi.sourceforge.net/DTD/sodipodi-0.dtd"
   xmlns:inkscape="http://www.inkscape.org/namespaces/inkscape"
   width="600"
   height="600"
   viewBox="0 0 600.00001 600.00001"
   id="svg2"
   version="1.1"
   inkscape:version="0.91 r13725"
   sodipodi:docname="tic-tac-toe.svg"
   inkscape:export-filename="tic-tac-toe.svg.png"
   inkscape:export-xdpi="90"
   inkscape:export-ydpi="90">
  <defs
     id="defs4" />
  <sodipodi:namedview
     id="base"
     pagecolor="#ffffff"
     bordercolor="#666666"
     borderopacity="1.0"
     inkscape:pageopacity="0.0"
     inkscape:pageshadow="2"
     inkscape:zoom="1.26"
     inkscape:cx="300"
     inkscape:cy="300"
     inkscape:document-units="px"
     inkscape:current-layer="layer1"
     showgrid="true"
     units="px"
     inkscape:window-width="1280"
     inkscape:window-height="968"
     inkscape:window-x="0"
     inkscape:window-y="30"
     inkscape:window-maximized="1">
    <inkscape:grid
       type="xygrid"
       id="grid4170"
       empspacing="150" />
  </sodipodi:namedview>
  <metadata
     id="metadata7">
    <rdf:RDF>
      <cc:Work
         rdf:about="">
        <dc:format>image/svg+xml</dc:format>
        <dc:type
           rdf:resource="http://purl.org/dc/dcmitype/StillImage" />
        <dc:title></dc:title>
      </cc:Work>
    </rdf:RDF>
  </metadata>
  <g
     inkscape:label="Layer 1"
     inkscape:groupmode="layer"
     id="layer1"
     transform="translate(0,-452.36216)">
    <path
       style="stroke:#fff;stroke-width:8;stroke-miterlimit:4;stroke-dasharray:none;stroke-opacity:1"
       id="path4365"
       d="m 207.19797,508.70985 c -0.38253,9.73948 -0.0761,19.48663 0.0124,29.22711 0.043,4.73228 0.0186,9.46493 0.0278,14.1974 -0.26066,57.68856 -0.88526,115.37432 -1.74321,173.05691 -0.435,14.19182 -0.70789,28.38953 -1.305,42.57545 -1.36508,32.43096 -2.79483,53.91477 -5.83404,86.13381 -3.03991,32.2265 -7.25772,64.32232 -11.51934,96.40352 -0.94792,6.85734 -1.89583,13.71468 -2.84374,20.57202 -0.98831,6.45554 -2.81421,6.176 -1.82591,-0.27954 l 0,0 c 1.14652,-6.82329 2.29304,-13.64659 3.43956,-20.46988 3.03488,-19.5006 6.20076,-38.9502 8.60371,-58.5463 6.77003,-55.20965 10.12342,-110.79161 11.2054,-166.39002 0.11638,-13.21684 0.29028,-26.43331 0.34916,-39.65053 0.19804,-44.45883 -0.41605,-88.91846 -1.04647,-133.3715 -0.36252,-14.49096 -0.93813,-28.97218 -1.44009,-43.45845 0,-13.85843 3.91975,-13.85843 3.91975,0 z"
       inkscape:connector-curvature="0" />
    <path
       style="stroke:#fff;stroke-width:8;stroke-miterlimit:4;stroke-dasharray:none;stroke-opacity:1"
       id="path4367"
       d="m 369.14328,508.13854 c 1.49857,13.11239 0.69557,26.3101 0.15416,39.4517 -1.13642,22.44626 -3.239,44.82601 -5.03737,67.22374 -2.65146,33.02251 -2.59291,36.4542 -5.91745,70.55424 -1.28431,13.17321 -2.76445,26.3266 -4.14668,39.48991 -1.62318,13.16627 -3.20614,26.33757 -4.86955,39.49882 -3.77015,29.83019 -5.69143,42.65961 -9.16727,72.15433 -3.42922,29.09923 -6.23534,58.24208 -8.77198,87.42962 -1.14086,16.84151 -2.6656,33.68218 -3.22445,50.56022 -0.10599,3.20115 -0.0667,6.40546 -0.10002,9.60819 -0.27465,10.53584 -3.25463,10.45816 -2.97998,-0.0777 l 0,0 c 0.13453,-3.23691 0.19146,-6.47798 0.40359,-9.71074 1.10667,-16.86595 3.20367,-33.66274 4.57097,-50.50553 2.97065,-29.14881 6.08368,-58.27764 9.73044,-87.35152 4.6683,-37.21811 10.09791,-74.34017 14.32932,-111.61392 1.35896,-13.16473 2.87372,-26.31431 4.07689,-39.4942 2.51766,-27.57928 3.31247,-43.41496 4.9877,-70.6199 1.379,-22.39433 2.81,-44.78858 3.51825,-67.21737 0.17981,-12.81265 0.72331,-25.72504 -1.36755,-38.42715 -3.36845,-13.47383 0.44252,-14.42658 3.81098,-0.95275 z"
       inkscape:connector-curvature="0" />
    <path
       style="stroke:#fff;stroke-width:8;stroke-miterlimit:4;stroke-dasharray:none;stroke-opacity:1"
       id="path4371"
       d="m 77.099822,639.18983 c 2.445978,0.35048 4.882264,0.777 7.337936,1.05146 14.089834,1.57477 27.329852,2.49678 41.645522,3.19557 11.94425,0.58304 23.89463,1.07556 35.84987,1.35377 31.74377,0.73871 62.88626,0.48577 94.66145,0.44653 54.6798,-0.39174 109.36414,-0.95778 164.02451,-2.5548 33.34666,-0.9743 55.60145,-2.0434 88.278,-3.46204 0.28033,-0.0122 0.28377,0.0671 0.003,0.0793 l 0,0 c -32.67737,1.41868 -54.93202,2.48777 -88.27958,3.46209 -54.66096,1.59704 -109.34588,2.16308 -164.02627,2.55483 -55.57163,0.0686 -42.08342,0.1818 -94.66864,-0.22422 -28.48464,-0.21993 -57.01353,-0.25837 -85.449517,-2.16281 -13.221729,-2.20363 -12.598451,-5.9433 0.623279,-3.73967 z"
       inkscape:connector-curvature="0" />
    <path
       style="stroke:#fff;stroke-width:8;stroke-miterlimit:4;stroke-dasharray:none;stroke-opacity:1"
       id="path4373"
       d="m 87.105643,797.60819 c 9.562746,0.37699 11.865295,0.49856 23.418947,0.72668 7.41238,0.14636 14.82648,0.19166 22.23916,0.32212 37.87921,0.66665 75.75468,1.36225 113.63626,1.9069 71.58979,1.78475 143.06439,6.41391 214.61012,9.28097 47.36049,1.89788 48.99458,1.68052 94.17594,2.44397 11.79504,-0.0543 23.59008,-0.10866 35.38512,-0.16299 1.24745,-9.3e-4 1.24772,0.3519 2.6e-4,0.35283 l 0,0 c -11.79557,-0.0368 -23.59115,-0.0737 -35.38672,-0.11048 -45.18261,-0.76349 -46.81662,-0.54612 -94.17824,-2.44405 -71.54491,-2.86702 -143.01867,-7.49612 -214.60762,-9.2809 -14.99054,-0.21552 -29.97982,-0.55417 -44.97162,-0.64658 -12.77975,-0.0788 -25.55993,0.0667 -38.33975,0.13307 -25.32836,0.13146 -50.67068,0.23292 -75.981857,1.27212 -13.412621,0 -13.412621,-3.79366 0,-3.79366 z"
       inkscape:connector-curvature="0" />
  </g>
</svg>
